<svg xmlns="http://www.w3.org/2000/svg" viewBox="0 0 489.89 512"><defs><style>.cls-1{fill:#56788b;}.cls-2{fill:#415e6f;}.cls-3{fill:#ff6b81;}.cls-4{fill:#ed2061;}.cls-5{fill:#d9f0f4;}.cls-6{fill:#fab684;}.cls-7{fill:#fdd9b4;}.cls-8{fill:#f9c19b;}.cls-9{fill:#09eaa3;}.cls-10{fill:#14bb87;}.cls-11{fill:#231f20;}</style></defs><title>added-user_1</title><g id="Layer_2" data-name="Layer 2"><g id="Layer_1-2" data-name="Layer 1"><path class="cls-1" d="M327.26,148.89l-70.65.38-175.45.93c-5.27-25.77-6.5-57.27,1.58-82.31,9.83-31.92,43.17-47,72.38-54.15C200.66,2.6,268.69,3.14,287.21,42.67a8.54,8.54,0,0,0,7,5.27c38.19,3.71,40.76,60.76,33.07,100.95Z"/><path class="cls-2" d="M327.26,148.89l-70.65.38,10.68-44.77c-19.72-59.14,26.9-56.56,26.9-56.56C332.38,51.65,335,108.7,327.26,148.89Z"/><path class="cls-3" d="M403.44,504.5H7.94c0-56-15.7-154.29,139.85-165.28q14.07-1,30-1h55.72q16,0,30,1c23.61,1.67,43.28,5.34,59.65,10.58C414.74,379.06,403.44,457,403.44,504.5Z"/><path class="cls-4" d="M403.44,504.5h-20c0-43.74,9.57-118.69-60.22-154.7C414.74,379.06,403.44,457,403.44,504.5Z"/><path class="cls-5" d="M263.57,339.22v0a58,58,0,0,1-115.76,0l0,0q14.07-1,30-1h55.72q16,0,30,1Z"/><path class="cls-6" d="M314.48,145H297l.11,45.69h17.34a22.85,22.85,0,1,0,0-45.69Z"/><path class="cls-6" d="M72.85,167.83A22.85,22.85,0,0,0,95.7,190.68H113l.11-45.69H95.7a22.85,22.85,0,0,0-22.85,22.84Z"/><path class="cls-6" d="M233.56,306.5H177.84c2.33,6.32,3.53,22.53,0,31.71a27.86,27.86,0,0,0,55.72,0c-3.54-9.18-2.34-25.39,0-31.71Z"/><path class="cls-7" d="M298.65,222.17c0,22.12-18.81,48.54-55.92,78.55a59.35,59.35,0,0,1-37.24,13,58.25,58.25,0,0,1-36.83-13c-37.11-30-55.92-56.43-55.92-78.55,0-2.35.09-4.7.28-7,1-9.65.68-53.71.66-82.16v0a24.69,24.69,0,0,1,13.82-22.8c18.94-8.42,48.55-12.62,78.19-12.6,21.27,0,42.52,2.14,59.83,6.48a112.91,112.91,0,0,1,18.37,6.12A24.7,24.7,0,0,1,297.7,133v0c0,28.45-.29,72.51.66,82.16.19,2.31.29,4.66.29,7Z"/><path class="cls-8" d="M298.65,222.17c0,22.12-18.81,48.54-55.92,78.55a59.35,59.35,0,0,1-37.24,13,58.09,58.09,0,0,1-10-.84,59,59,0,0,0,27.21-12.19c37.11-30,55.92-56.43,55.92-78.55,0-2.35-.1-4.7-.29-7-.95-9.65-.68-53.71-.66-82.16v-7a24.7,24.7,0,0,0-12.18-21.92,112.91,112.91,0,0,1,18.37,6.12A24.7,24.7,0,0,1,297.7,133v0c0,28.45-.29,72.51.66,82.16.19,2.31.29,4.66.29,7Z"/><path class="cls-9" d="M482.38,360.87a87.81,87.81,0,0,1-87.84,87.79,86.91,86.91,0,0,1-10-.57,87.79,87.79,0,0,1,0-174.44,86.91,86.91,0,0,1,10-.57A87.81,87.81,0,0,1,482.38,360.87Z"/><path class="cls-10" d="M482.38,360.87a87.81,87.81,0,0,1-87.84,87.79,86.91,86.91,0,0,1-10-.57,87.79,87.79,0,0,0,0-174.44,86.91,86.91,0,0,1,10-.57A87.81,87.81,0,0,1,482.38,360.87Z"/><path d="M29.51,387.89a7.5,7.5,0,0,0-10.36,2.28C-1.21,422-.41,459.93.24,490.4c.11,5,.21,9.68.21,14.1a7.5,7.5,0,0,0,15,0c0-4.58-.11-9.36-.21-14.42-.61-28.43-1.36-63.82,16.55-91.83A7.5,7.5,0,0,0,29.51,387.89Z"/><path d="M276.43,332.82c-11.51-1.22-24-1.92-37.08-2.08a60.31,60.31,0,0,1,.5-18.88,65,65,0,0,0,7.6-5.3c38.95-31.51,58.7-59.9,58.7-84.39,0-2.55-.1-5.12-.31-7.63,0,0,0-.08,0-.12-.27-2.73-.44-8.62-.54-16.24h9.19a30.33,30.33,0,0,0,20.94-52.29c5-29.87,4.52-67.64-11.4-88.93a39.84,39.84,0,0,0-29-16.47,1.06,1.06,0,0,1-.86-.65l-.15-.35C284.58,19.37,263.27,6.33,232.4,1.78,208.61-1.72,179.8,0,153.35,6.46c-42.11,10.27-69,30.75-77.75,59.13C68.38,88,67.48,117.7,73,147.68a30.33,30.33,0,0,0,22.67,50.5h10.4c-.1,7.62-.26,13.51-.53,16.25a.37.37,0,0,0,0,.11c-.21,2.51-.32,5.08-.32,7.63,0,24.5,19.75,52.89,58.7,84.38a66.11,66.11,0,0,0,7.6,5.33,60.23,60.23,0,0,1,.5,18.87c-57.35.66-99.12,11.29-127.58,32.45a7.5,7.5,0,0,0,8.95,12c20.26-15.06,49.69-24.42,87.75-27.94a65.48,65.48,0,0,0,129.08,0c1.55.14,3.09.3,4.61.46a7.26,7.26,0,0,0,.8,0,7.5,7.5,0,0,0,.78-15Zm38.05-149.64h-9.3c0-9.76,0-20.55,0-30.69h9.31a15.35,15.35,0,1,1,0,30.69ZM312,66c12.25,16.38,12.9,47.35,9.4,72.34a29.81,29.81,0,0,0-6.93-.8H305.2v-4.42a32.24,32.24,0,0,0-18-29.63l-.25-.12a110.51,110.51,0,0,0-13.72-4.95c-4.66-15.75-4.35-27.7.95-34.72,6.2-8.21,18.12-8.25,19.52-8.22A25.12,25.12,0,0,1,312,66ZM95.7,183.18a15.35,15.35,0,1,1,0-30.69h10.52c0,10.14,0,20.93,0,30.69Zm24.54,39c0-2.12.09-4.25.26-6.33.83-8.56.77-40.18.71-68.08,0-5.19,0-10.18,0-14.78v-.2A17.22,17.22,0,0,1,130.68,117,114.24,114.24,0,0,1,152,110.32a7.5,7.5,0,0,0-3.24-14.65,128.82,128.82,0,0,0-24.27,7.65l-.25.12a32.25,32.25,0,0,0-18,29.63v4.42H95.7a30.13,30.13,0,0,0-9,1.35c-3.94-25.45-2.86-50,3.17-68.74,9-29.25,41.4-42.83,67-49.07,24.64-6,51.36-7.64,73.3-4.41,16.95,2.5,38.69,9.1,48.66,26.26A34.52,34.52,0,0,0,262.3,54.47c-7.34,9.61-9.19,23-5.56,40A277.76,277.76,0,0,0,206,90.08h-.32c-7.16,0-14.33.22-21.3.7a7.5,7.5,0,1,0,1,15c6.53-.44,13.25-.66,20-.66H206c30,0,57.86,4.43,74.71,11.89a17.22,17.22,0,0,1,9.5,15.81c0,.06,0,.16,0,.22,0,4.6,0,9.6,0,14.8-.05,27.88-.11,59.48.72,68,.17,2.09.25,4.22.25,6.34,0,19.46-18.37,44.61-53.15,72.73a52.3,52.3,0,0,1-32.52,11.35,50.71,50.71,0,0,1-32.1-11.36c-34.77-28.11-53.14-53.26-53.14-72.72Zm85.07,99.08h.34A67,67,0,0,0,224,318.7c-.38,7,.11,14.68,2.05,20.69a20.36,20.36,0,0,1-40.65,0c1.94-6,2.43-13.68,2-20.64a65.39,65.39,0,0,0,17.89,2.5Zm.39,65.46a50.4,50.4,0,0,1-49.48-40.48q7.28-.36,14.93-.47a35.36,35.36,0,0,0,69.09,0q7.65.11,14.94.47a50.4,50.4,0,0,1-49.48,40.48Z"/><path d="M403.94,472.17a7.52,7.52,0,0,0-7.59,7.41c-.05,3.57-.12,7.08-.19,10.49-.11,5.06-.21,9.84-.21,14.43a7.5,7.5,0,0,0,15,0c0-4.43.1-9.13.2-14.12q.12-5.17.2-10.62a7.5,7.5,0,0,0-7.41-7.59Z"/><path d="M205.5,261.29a32,32,0,0,0,27-14.73,7.5,7.5,0,1,0-12.6-8.14,17.13,17.13,0,0,1-28.81,0,7.5,7.5,0,1,0-12.6,8.14,32,32,0,0,0,27,14.73Z"/><path d="M192,211.84a7.49,7.49,0,0,0,10.36-2.23,3.94,3.94,0,0,1,6.63,0,7.5,7.5,0,0,0,12.6-8.14,18.94,18.94,0,0,0-31.83,0A7.51,7.51,0,0,0,192,211.84Z"/><path d="M394.54,265.58A96.37,96.37,0,0,0,377.9,267a7.5,7.5,0,0,0,2.61,14.77,80.29,80.29,0,1,1-66.31,79.07,80,80,0,0,1,37.32-67.82,7.5,7.5,0,1,0-8-12.66,95.37,95.37,0,1,0,51.06-14.81Z"/><path d="M93.93,471a9.41,9.41,0,0,0-6.82,2.95c-2.94,2.89-6.86,9.2-6.86,30.58a7.5,7.5,0,0,0,15,0c0-13.06,1.57-18,2.25-19.51a7.5,7.5,0,0,0-3.57-14Z"/><path d="M324.28,473.92a9.42,9.42,0,0,0-6.82-2.95,7.5,7.5,0,0,0-3.57,14c.68,1.52,2.25,6.46,2.25,19.51a7.5,7.5,0,0,0,15,0c0-21.38-3.91-27.69-6.86-30.58Z"/><path class="cls-11" d="M371.14,406.11a11.69,11.69,0,0,1-8.51-3.63l-21.76-21.75a12.15,12.15,0,1,1,17.18-17.19l13.25,13.24,54.07-54.06a12.17,12.17,0,0,1,17.18.47,12,12,0,0,1,0,16.55L380,402.32a13.15,13.15,0,0,1-8.83,3.79Z"/></g></g></svg>