<?xml version="1.0" encoding="utf-8"?>
<!-- Generator: Adobe Illustrator 24.0.0, SVG Export Plug-In . SVG Version: 6.00 Build 0)  -->
<svg version="1.1" id="icon" xmlns="http://www.w3.org/2000/svg" xmlns:xlink="http://www.w3.org/1999/xlink" x="0px" y="0px"
	 viewBox="0 0 512 512" style="enable-background:new 0 0 512 512;" xml:space="preserve">
<style type="text/css">
	.st0{fill:#F4BB87;}
	.st1{fill:#62667C;}
	.st2{fill:#DBD8DD;}
	.st3{fill:#FED19A;}
	.st4{fill:#DA364C;}
	.st5{fill:#EF5261;}
	.st6{fill:#EEEFEE;}
	.st7{fill:#575B6D;}
	.st8{fill:#414451;}
	.st9{fill:#ED8054;}
	.st10{fill:#EAB54E;}
</style>
<ellipse class="st0" cx="298.4" cy="199.5" rx="11.8" ry="14.7"/>
<path class="st0" d="M177.1,184.8c-6.5,0-11.8,6.6-11.8,14.7s5.3,14.7,11.8,14.7s11.8-6.6,11.8-14.7S183.7,184.8,177.1,184.8z"/>
<path class="st1" d="M373.5,325.7c-3-15.9-14.8-28.7-30.4-32.9c-25.1-8.6-49.6-18.9-73.4-30.6c-19.9,12.5-45.1,12.5-65,0
	c-23.8,11.8-48.3,22-73.4,30.6c-15.6,4.3-27.4,17-30.4,32.9v53h272.7V325.7z"/>
<path class="st2" d="M249.3,378.6c14.8-28.2,25.6-58.4,31.8-89.6l-44-5.3l-44,5.3c6.3,31.2,17,61.4,31.8,89.6H249.3z"/>
<path class="st0" d="M269.7,251.2v10.9l-32.5,21.7l-32.5-21.7v-10.9L269.7,251.2z"/>
<path class="st3" d="M298.4,184.8c0.7,34-11.9,65.7-47.3,76.1c-8.6,2.5-17.8,2.5-26.4,0c-35.4-10.4-48.2-42.1-47.5-76.1
	c0,0-9.1-67.7,29.5-69s90.5,24.1,90.5,24.1C301.2,151.8,300.5,167.7,298.4,184.8L298.4,184.8z"/>
<path class="st4" d="M220,283.9l11,17.3h12.3l11-17.3H220z"/>
<path class="st5" d="M244.1,378.6l9.1-10.2l-9.8-67.2H231l-9.8,67.3l9.1,10.2L244.1,378.6z"/>
<path class="st6" d="M204.7,262.1l32.5,21.7l-34.3,21.7L204.7,262.1z"/>
<path class="st6" d="M269.7,262.1l-32.5,21.7l34.3,21.7L269.7,262.1z"/>
<path class="st7" d="M174.4,301.2l17.2-1.8l-5.5,19.9c0,0,18.2,38,35,59.3h16c-15.8-40.7-33.6-79.8-32.5-116.5
	C191.3,272.2,180.9,285.7,174.4,301.2z"/>
<path class="st7" d="M299.9,301.2l-17.2-1.8l5.5,19.9c0,0-18.2,38-35,59.3h-16c15.8-40.7,33.6-79.8,32.5-116.5
	C283.1,272.2,293.5,285.7,299.9,301.2L299.9,301.2z"/>
<path class="st8" d="M310,141.4c-1.8-14.9-9.7-27-28.1-26.2c0,0-1.6-23.2-43.7-23.2c-15.2,0.2-30,4.7-42.7,13l-0.4,0.2
	c-22,13.9-32.1,48.5-22,72.6c1,2.5,2.4,4.9,4,7l2.4-11.5c2-8.7,8.2-15.9,16.5-19.2c14.3-5.9,24.9-17.1,37.9-12.5
	c5.9,2.1,12.1,3.1,18.4,2.8c14.7-0.8,26.8,1.6,37.9,14.2c4.7,7.8,8.8,15.6,8.2,26.2l4.4-8.5C308.7,165.7,311.2,153.5,310,141.4
	L310,141.4z"/>
<path class="st9" d="M329.3,387.6c-42,0-76.1-34-76.2-76.1c0-42,34-76.1,76.1-76.2s76.1,34,76.2,76.1c0,0,0,0.1,0,0.1
	C405.3,353.5,371.3,387.5,329.3,387.6z"/>
<path class="st10" d="M390,311.6c0,33.6-27.3,60.8-60.8,60.7s-60.8-27.3-60.7-60.8c0-33.6,27.3-60.8,60.8-60.7
	C362.8,250.7,390,277.9,390,311.6C390,311.5,390,311.5,390,311.6L390,311.6z"/>
<path class="st6" d="M316.3,339.1c-2,0-4-0.8-5.4-2.3L297.1,323c-3-3-3-7.9,0-10.9c3-3,7.9-3,10.9,0l8.4,8.4l34.3-34.3
	c3.1-2.9,7.9-2.8,10.9,0.3c2.8,3,2.8,7.6,0,10.5l-39.7,39.7C320.3,338.2,318.3,339.1,316.3,339.1L316.3,339.1z"/>
</svg>
