<svg id="Capa_1" enable-background="new 0 0 512 512" height="512" viewBox="0 0 512 512" width="512" xmlns="http://www.w3.org/2000/svg"><g><g clip-rule="evenodd" fill-rule="evenodd"><path d="m44.278 483.525h423.444c3.203 0 5.839-2.636 5.839-5.839v-197.408c0-3.203-2.636-5.839-5.839-5.839h-423.444c-3.204 0-5.812 2.636-5.812 5.839v197.408c.001 3.204 2.608 5.839 5.812 5.839z" fill="#e6646e"/><path d="m444.421 483.525h23.302c3.203 0 5.839-2.636 5.839-5.839v-184.792h-29.141z" fill="#dc4655"/><path d="m38.467 59.77h435.095v201.829h-435.095z" fill="#e6646e"/><path d="m13.323 292.894h485.354c3.203 0 5.84-2.608 5.84-5.812v-25.257c0-3.203-2.637-5.811-5.84-5.811h-485.354c-3.203 0-5.812 2.608-5.812 5.811v25.257c.001 3.203 2.609 5.812 5.812 5.812z" fill="#3f6d8e"/><path d="m13.323 65.382h485.354c3.203 0 5.84-2.607 5.84-5.81v-25.259c0-3.203-2.637-5.811-5.84-5.811h-485.354c-3.203 0-5.812 2.608-5.812 5.811v25.258c.001 3.203 2.609 5.811 5.812 5.811z" fill="#3f6d8e"/><g fill="#365e7d"><path d="m469.565 65.382h29.111c3.203 0 5.84-2.607 5.84-5.81v-25.259c0-3.203-2.637-5.811-5.84-5.811h-29.111c3.203 0 5.811 2.608 5.811 5.811v25.258c0 3.203-2.607 5.811-5.811 5.811z"/><path d="m469.565 292.894h29.111c3.203 0 5.84-2.608 5.84-5.812v-25.257c0-3.203-2.637-5.811-5.84-5.811h-29.111c3.203 0 5.811 2.608 5.811 5.811v25.257c0 3.203-2.607 5.812-5.811 5.812z"/><path d="m439.574 483.525v-147.913c0-3.203-2.608-5.84-5.811-5.84h-142.103c-3.203 0-5.812 2.637-5.812 5.84v147.913zm-213.394 0v-147.913c0-3.203-2.637-5.84-5.84-5.84h-142.074c-3.203 0-5.839 2.637-5.839 5.84v147.913z"/></g><path d="m439.574 483.525v-147.913c0-3.203-2.608-5.84-5.811-5.84h-29.141c3.203 0 5.84 2.637 5.84 5.84v147.913zm-213.394 0v-147.913c0-3.203-2.637-5.84-5.84-5.84h-29.112c3.203 0 5.839 2.637 5.839 5.84v147.913z" fill="#294b64"/><path d="m107.548 399.449h83.538c3.203 0 5.811 2.608 5.811 5.812v43.312c0 3.203-2.607 5.84-5.811 5.84h-83.538c-3.203 0-5.84-2.637-5.84-5.84v-43.312c0-3.203 2.637-5.812 5.84-5.812z" fill="#e6646e"/><path d="m161.945 398.712h29.141c3.203 0 5.811 2.637 5.811 5.84v44.021c0 3.203-2.607 5.84-5.811 5.84h-29.141c3.203 0 5.84-2.637 5.84-5.84v-44.021c0-3.203-2.637-5.84-5.84-5.84z" fill="#dc4655"/><path d="m196.896 405.855v-26.675c0-8.022-6.548-14.57-14.569-14.57h-66.049c-8.022 0-14.57 6.548-14.57 14.57v26.675z" fill="#c4deff"/><path d="m320.942 398.712h83.538c3.203 0 5.811 2.637 5.811 5.84v44.021c0 3.203-2.608 5.84-5.811 5.84h-83.538c-3.203 0-5.839-2.637-5.839-5.84v-44.021c0-3.203 2.636-5.84 5.839-5.84z" fill="#e6646e"/><path d="m375.368 398.712h29.112c3.203 0 5.811 2.637 5.811 5.84v44.021c0 3.203-2.608 5.84-5.811 5.84h-29.112c3.203 0 5.811-2.637 5.811-5.84v-44.021c0-3.203-2.608-5.84-5.811-5.84z" fill="#dc4655"/><path d="m410.292 405.855v-26.675c0-8.022-6.548-14.57-14.542-14.57h-66.076c-7.994 0-14.57 6.548-14.57 14.57v26.675z" fill="#c4deff"/><path d="m196.896 405.855v-26.675c0-8.022-6.548-14.57-14.569-14.57h-29.112c8.023 0 14.57 6.548 14.57 14.57v26.675z" fill="#a5cdff"/><path d="m410.292 405.855v-26.675c0-8.022-6.548-14.57-14.542-14.57h-29.142c8.022 0 14.57 6.548 14.57 14.57v26.675z" fill="#a5cdff"/><path d="m78.266 202.977h62.646c3.203 0 5.84-2.607 5.84-5.811v-72.937c0-3.203-2.637-5.84-5.84-5.84h-62.646c-3.203 0-5.839 2.637-5.839 5.84v72.937c0 3.203 2.635 5.811 5.839 5.811z" fill="#c4deff"/><path d="m371.088 202.977h62.675c3.203 0 5.811-2.607 5.811-5.811v-72.937c0-3.203-2.608-5.84-5.811-5.84h-62.675c-3.203 0-5.811 2.637-5.811 5.84v72.937c-.001 3.203 2.608 5.811 5.811 5.811z" fill="#c4deff"/><path d="m404.622 202.977h29.141c3.203 0 5.811-2.607 5.811-5.811v-72.937c0-3.203-2.608-5.84-5.811-5.84h-29.141c3.203 0 5.84 2.637 5.84 5.84v72.937c0 3.203-2.637 5.811-5.84 5.811z" fill="#a5cdff"/><path d="m111.8 202.977h29.112c3.203 0 5.84-2.607 5.84-5.811v-72.937c0-3.203-2.637-5.84-5.84-5.84h-29.112c3.203 0 5.811 2.637 5.811 5.84v72.937c-.001 3.203-2.608 5.811-5.811 5.811z" fill="#a5cdff"/><path d="m234.23 103.593c-.992-3.77.623-5.641 4.336-5.641h40.706c3.714 0 5.329 1.871 4.337 5.641l-12.728 48.049 48.049-12.728c4.024-1.049 5.641-.057 5.641 4.337v34.894c0 4.167-1.956 5.301-5.641 4.309l-48.049-12.728 12.728 48.077c1.077 4.053-.453 5.612-4.337 5.612h-40.706c-3.911 0-5.414-1.56-4.336-5.612l12.727-48.077-48.048 12.728c-3.685.992-5.641-.142-5.641-4.309v-34.894c0-4.394 1.587-5.386 5.641-4.337l48.048 12.728z" fill="#ffe17d"/><path d="m256 196.911c19.956 0 36.227-16.271 36.227-36.228 0-19.927-16.271-36.199-36.227-36.199-19.928 0-36.198 16.272-36.198 36.199 0 19.958 16.27 36.228 36.198 36.228z" fill="#dc4655"/><path d="m256 124.484c20.013 0 36.227 16.215 36.227 36.199 0 20.014-16.214 36.228-36.227 36.228-5.188 0-10.092-1.105-14.542-3.062 12.728-5.613 21.629-18.34 21.629-33.166 0-14.797-8.901-27.553-21.629-33.138 4.45-1.983 9.354-3.061 14.542-3.061z" fill="#d82e3d"/><path d="m444.421 65.382h29.141v190.633h-29.141z" fill="#dc4655"/></g><path d="m45.951 300.406v175.607h18.992v-146.241c0-4.139 3.345-7.483 7.483-7.483h153.754c4.139 0 7.483 3.345 7.483 7.483v146.241h44.674v-146.241c0-4.139 3.345-7.483 7.512-7.483h153.726c4.138 0 7.512 3.345 7.512 7.483v146.241h18.963v-175.607h-299.768c-4.139 0-7.483-3.375-7.483-7.513 0-4.139 3.345-7.513 7.483-7.513h307.279 23.443v-21.884h-23.443-93.856c-4.167 0-7.512-3.344-7.512-7.483s3.345-7.512 7.512-7.512h86.344v-175.607h-420.098v175.609h299.767c4.139 0 7.512 3.373 7.512 7.512s-3.373 7.483-7.512 7.483h-307.251-23.472v21.884h23.472 93.856c4.139 0 7.483 3.374 7.483 7.513 0 4.138-3.345 7.513-7.483 7.513h-86.372zm186.011-176.205-6.463-24.321c-.566-2.211-.113-4.422 1.077-6.151 1.389-2.013 3.742-3.26 6.151-3.26h46.545c5.188 0 8.759 5.102 7.087 9.921l-6.293 23.812c2.466 1.616 4.762 3.515 6.859 5.585 2.069 2.098 3.94 4.394 5.584 6.86l24.323-6.463c4.875-1.275 9.41 2.494 9.41 7.37v46.403c0 4.139-3.373 7.512-7.512 7.512-.85 0-1.672-.143-2.438-.426l-23.784-6.293c-1.644 2.467-3.515 4.763-5.584 6.86-2.098 2.069-4.394 3.94-6.859 5.584l6.435 24.322c1.304 4.961-2.495 9.411-7.398 9.411h-46.375c-4.139 0-7.483-3.345-7.483-7.512 0-.851.142-1.645.396-2.409l6.321-23.812c-2.494-1.644-4.79-3.515-6.859-5.584-2.098-2.098-3.969-4.394-5.584-6.86l-24.351 6.435c-4.876 1.304-9.383-2.494-9.383-7.37v-46.375c0-4.138 3.345-7.512 7.483-7.512.85 0 1.672.143 2.438.397l23.812 6.321c1.615-2.467 3.486-4.763 5.584-6.86 2.071-2.07 4.367-3.969 6.861-5.585zm34.215-6.038 3.373-12.699h-27.071l3.345 12.699c3.288-.766 6.691-1.19 10.177-1.19 3.514 0 6.915.424 10.176 1.19zm32.343 52.697 12.728 3.373v-27.07l-12.728 3.373c.795 3.26 1.191 6.661 1.191 10.147 0 3.516-.396 6.918-1.191 10.177zm-52.697 32.344-3.345 12.729h27.071l-3.373-12.729c-3.261.794-6.662 1.19-10.177 1.19-3.485.001-6.888-.396-10.176-1.19zm-32.343-52.668-12.7-3.373v27.07l12.7-3.373c-.766-3.26-1.191-6.661-1.191-10.177 0-3.486.426-6.887 1.191-10.147zm62.816-10.148c-5.188-5.186-12.358-8.39-20.296-8.39-7.908 0-15.108 3.203-20.296 8.39-5.188 5.188-8.419 12.388-8.419 20.296 0 7.938 3.231 15.109 8.419 20.325 5.188 5.186 12.388 8.39 20.296 8.39 7.938 0 15.108-3.203 20.296-8.39 5.216-5.216 8.419-12.388 8.419-20.325 0-7.909-3.203-15.109-8.419-20.296zm96.464 55.106h59.33v-69.592h-59.33zm66.814 14.994h-74.298c-4.139 0-7.512-3.373-7.512-7.512v-84.586c0-4.138 3.373-7.482 7.512-7.482h74.298c4.138 0 7.512 3.345 7.512 7.482v84.587c0 4.138-3.374 7.511-7.512 7.511zm-359.636-14.994h59.302v-69.592h-59.302zm66.814 14.994h-74.325c-4.139 0-7.483-3.373-7.483-7.512v-84.586c0-4.138 3.345-7.482 7.483-7.482h74.325c4.139 0 7.483 3.345 7.483 7.482v84.587c0 4.138-3.344 7.511-7.483 7.511zm231.706 227.144c-4.139 0-7.512-3.345-7.512-7.512 0-4.139 3.373-7.483 7.512-7.483h7.569c4.139 0 7.512 3.345 7.512 7.483 0 4.167-3.373 7.512-7.512 7.512zm-213.394 0c-4.167 0-7.512-3.345-7.512-7.512 0-4.139 3.345-7.483 7.512-7.483h7.568c4.139 0 7.512 3.345 7.512 7.483 0 4.167-3.373 7.512-7.512 7.512zm205.145-65.51v26.25h32.6v-19.191c0-1.956-.794-3.714-2.098-4.989-1.275-1.275-3.033-2.069-4.961-2.069h-25.541zm-14.995 26.25v-26.25h-25.54c-1.928 0-3.685.794-4.989 2.069-1.275 1.275-2.069 3.033-2.069 4.989v19.191h32.598zm-198.4-26.25v26.25h32.57v-19.191c0-1.956-.794-3.714-2.069-4.989s-3.033-2.069-4.988-2.069h-25.513zm-15.023 26.25v-26.25h-25.513c-1.928 0-3.713.794-4.989 2.069-1.275 1.275-2.069 3.033-2.069 4.989v19.191h32.571zm197.606 39.26c-4.167 0-7.512-3.345-7.512-7.512 0-4.139 3.345-7.483 7.512-7.483h7.568c4.139 0 7.483 3.345 7.483 7.483 0 4.167-3.345 7.512-7.483 7.512zm-213.424 0c-4.139 0-7.483-3.345-7.483-7.512 0-4.139 3.345-7.483 7.483-7.483h7.598c4.139 0 7.483 3.345 7.483 7.483 0 4.167-3.345 7.512-7.483 7.512zm211.212 24.265v14.117h51.053v-14.117zm-15.024 14.117v-14.117h-7.058c-4.139 0-7.483-3.345-7.483-7.483v-75.232c0-6.095 2.466-11.594 6.463-15.591 3.997-3.996 9.524-6.491 15.591-6.491h33.023 33.053c6.066 0 11.594 2.495 15.562 6.491 3.996 3.997 6.491 9.496 6.491 15.591v75.232c0 4.139-3.373 7.483-7.512 7.483h-7.059v14.117h28.856v-138.73h-138.756v138.729h28.829zm-198.399-14.117v14.117h51.081v-14.117zm-14.995 14.117v-14.117h-7.059c-4.139 0-7.483-3.345-7.483-7.483v-75.232c0-6.095 2.467-11.594 6.463-15.591 3.997-3.996 9.524-6.491 15.591-6.491h33.024 33.024c6.094 0 11.593 2.495 15.59 6.491 3.997 3.997 6.491 9.496 6.491 15.591v75.232c0 4.139-3.373 7.483-7.512 7.483h-7.058v14.117h28.829v-138.73h-138.729v138.729h28.829zm213.848-62.647v33.534h7.059 66.076 7.059v-33.534h-40.111zm-213.395 0v33.534h80.165v-33.534zm276.212-392.377c4.139 0 7.512 3.374 7.512 7.513 0 4.138-3.373 7.483-7.512 7.483h-370.437v21.884h482.01v-21.884h-77.586c-4.138 0-7.512-3.346-7.512-7.483 0-4.139 3.374-7.513 7.512-7.513h85.098c4.139 0 7.483 3.374 7.483 7.513v36.879c0 4.139-3.345 7.512-7.483 7.512h-23.471v175.609h23.471c4.139 0 7.483 3.373 7.483 7.512v36.879c0 4.138-3.345 7.513-7.483 7.513h-23.471v183.119c0 4.139-3.346 7.484-7.484 7.484h-33.987c-133.712 0-267.396 0-401.107 0-4.139 0-7.513-3.346-7.513-7.484v-183.12h-23.443c-4.138 0-7.512-3.375-7.512-7.513v-36.879c0-4.139 3.374-7.512 7.512-7.512h23.442v-175.608h-23.442c-4.138 0-7.512-3.373-7.512-7.512v-36.879c0-4.139 3.374-7.513 7.512-7.513z"/></g></svg>