<?xml version="1.0" encoding="utf-8"?>
<!-- Generator: Adobe Illustrator 24.0.0, SVG Export Plug-In . SVG Version: 6.00 Build 0)  -->
<svg version="1.1" id="Layer_2_1_" xmlns="http://www.w3.org/2000/svg" xmlns:xlink="http://www.w3.org/1999/xlink" x="0px" y="0px"
	 viewBox="0 0 1200 1200" style="enable-background:new 0 0 1200 1200;" xml:space="preserve">
<style type="text/css">
	.st0{fill:#E2E2E2;}
	.st1{fill:#F3F3F3;}
	.st2{fill:#D37C59;}
	.st3{fill:#DE8E68;}
	.st4{fill:#56CAD8;}
	.st5{fill:#74D5DE;}
	.st6{fill:#EA7332;}
	.st7{fill:#DC8E6C;}
	.st8{fill:#FB836D;}
	.st9{fill:#D3D3D3;}
	.st10{fill:none;stroke:#D3D3D3;stroke-width:3.69;stroke-miterlimit:10;}
	.st11{fill:#FED892;}
	.st12{fill:none;stroke:#EA7332;stroke-width:3.84;stroke-linecap:round;stroke-linejoin:round;}
	.st13{fill:none;stroke:#EA7332;stroke-width:3.69;stroke-linecap:round;stroke-linejoin:round;}
	.st14{fill:none;stroke:#74D5DE;stroke-width:3.69;stroke-linecap:round;stroke-linejoin:round;}
	.st15{fill:none;stroke:#EA7332;stroke-width:2.39;stroke-linecap:round;stroke-linejoin:round;}
	.st16{fill:none;stroke:#FED385;stroke-width:3.69;stroke-linecap:round;stroke-linejoin:round;}
</style>
<title>Artboard 1</title>
<path class="st0" d="M711.1,528.1c0-21.9-47-74.9-84.7-74.9c-28.9,0-29.4,15.3-57.6,15.3c-43.5,0-75.7-72.7-159.3-72.7
	c-89,0-205.4,83.6-205.4,149.1C204.1,638.9,711.1,661.4,711.1,528.1z"/>
<path class="st1" d="M935.5,849.7c1-102,2.6-265.9,2.6-290.1c0-35.6-52.8-142.1-145.3-142.1c-101.3,0-151.3,116.2-217.6,116.2
	c-60.8,0-65.5-30.8-140.7-30.8c-49,0-149.8,62.8-149.8,127l67.1,219.8L935.5,849.7z"/>
<ellipse transform="matrix(4.815250e-02 -0.9988 0.9988 4.815250e-02 -105.6006 1249.1074)" class="st2" cx="602.6" cy="680" rx="11.7" ry="5.3"/>
<path class="st2" d="M590.2,739.7c-0.2-1.9,4.3-42.2,7.9-55c2.1-0.8,4.4-1.1,6.7-0.9l-0.3,39.7l-5,18.7L590.2,739.7z"/>
<polygon points="620.7,683.6 589.3,686.2 588.3,680 618.5,670.4 "/>
<rect x="544.3" y="999.2" class="st3" width="13.8" height="11.7"/>
<rect x="586.9" y="1001.1" class="st3" width="13.8" height="11.7"/>
<path class="st4" d="M542.9,805v194.9H559l18.5-104.3C577.5,895.6,580.1,839.2,542.9,805z"/>
<path class="st5" d="M596,801.2c0.5,5.6,6.1,107.9,6.1,107.9v93.1l-16.5,1.8l-10.6-99l-32-99.9C547.7,802.3,583.2,797.3,596,801.2z"
	/>
<path class="st6" d="M566.5,715.5c31.8,0,33.3,80.8,29.5,85.7s-49,8.2-53.2,3.8S526.9,715.5,566.5,715.5z"/>
<ellipse transform="matrix(4.815250e-02 -0.9988 0.9988 4.815250e-02 -100.5865 1254.3615)" class="st3" cx="607.9" cy="680" rx="11.7" ry="5.3"/>
<polygon points="585.6,1010.9 585.6,1022.5 618.3,1022.5 618.3,1018.3 601.3,1010.9 "/>
<polygon points="543.9,1009 543.9,1020.7 576.6,1020.7 576.6,1016.5 559.6,1009 "/>
<rect x="585.5" y="681.4" transform="matrix(0.9879 -0.1551 0.1551 0.9879 -98.8452 99.3511)" width="3.9" height="3.9"/>
<path class="st2" d="M568.8,722.5c0,2.7-12.4,3-12.4,0V696h12.4V722.5z"/>
<ellipse class="st7" cx="568.5" cy="688.3" rx="13" ry="19.9"/>
<path class="st8" d="M545.8,680.1c0-6.1,2.7-10,4.8-11.2c4.2-2.4,5.9-1.3,10.2-3.2c4.6-2,8.5-7.8,13.8-7.8c5,0,4.5,2.8,7.9,3.7
	c2,0.5,13.4-2.1,13.4,5.2c0,11.3-12.6,12.2-15.5,13.7c-0.4-1.3-0.9-2.6-1.5-3.8c-2.3,2.4-10.6,4-11.9,4.5c-3.1,1.3-4.6,6.1-4.6,9.3
	s-2.9,3.2-3.6,3.2C552.2,693.6,545.8,689.4,545.8,680.1z"/>
<circle class="st7" cx="556.7" cy="691.7" r="4.3"/>
<path class="st9" d="M525.4,718.3L525.4,718.3c6.9,0,12.6,5.6,12.6,12.6v59.5c0,6.9-5.6,12.6-12.6,12.6l0,0
	c-6.9,0-12.6-5.6-12.6-12.6v-59.5C512.8,724,518.4,718.3,525.4,718.3z"/>
<ellipse class="st10" cx="544.9" cy="751.2" rx="30.4" ry="32.9"/>
<path class="st3" d="M576.8,736.8c2.5,0,15.3,0.5,20.5,2.4c0.4-2.5,2.7-38.8,6.5-50.9c1.5-1.6,7.5-1.4,7.5,0s8.5,60.9,0,67.9
	s-37.4-2.4-38.6-3.3S576.8,736.8,576.8,736.8z"/>
<path class="st11" d="M549.7,734.7c2.8-11.5,28.4-1.9,30.7,0.7c2.8,3.1-2.2,20.8-6,21.7C568.1,758.4,546,749.6,549.7,734.7z"/>
<polygon class="st6" points="266.4,341.6 142.6,849.7 390.1,849.7 "/>
<polygon class="st4" points="169.6,341.6 45.9,893.9 293.4,893.9 "/>
<line class="st12" x1="170.3" y1="891.4" x2="170.3" y2="395.4"/>
<line class="st12" x1="170.3" y1="559" x2="197.2" y2="529.7"/>
<line class="st12" x1="170.3" y1="698.9" x2="210.7" y2="655"/>
<line class="st12" x1="170.3" y1="845" x2="233.1" y2="776.7"/>
<line class="st12" x1="170.3" y1="559" x2="143.4" y2="529.7"/>
<line class="st12" x1="170.3" y1="698.9" x2="129.9" y2="655"/>
<line class="st12" x1="170.3" y1="845" x2="107.4" y2="776.7"/>
<path class="st5" d="M258.2,734.3L258.2,734.3c37.4,0,67.7,30.3,67.7,67.7v61.8c0,37.4-30.3,67.7-67.7,67.7h0
	c-37.4,0-67.7-30.3-67.7-67.7V802C190.5,764.6,220.8,734.3,258.2,734.3z"/>
<line class="st13" x1="258.2" y1="982.9" x2="258.2" y2="795.8"/>
<path class="st13" d="M258.2,875.4c37,0,37-22.3,37-56"/>
<path class="st13" d="M258.2,841.3c-25.6,0-25.6-15.5-25.6-38.8"/>
<path class="st6" d="M1152.4,849.7V667.6c-0.1-44.8-36.4-81.1-81.3-81.3l0,0c-4.4,0-8.7,0.4-13.1,1.1V377.8
	c0-30.7-24.9-55.6-55.6-55.6l0,0c-30.7,0-55.6,24.9-55.6,55.6v0v44.9c-8.4-2.9-17.2-4.3-26-4.3l0,0c-44.8,0.1-81.2,36.5-81.3,81.3
	V649h-35.4c-30.6,0.1-55.4,24.9-55.5,55.5v129.3c0,5.4,0.8,10.7,2.3,15.8H1152.4z"/>
<path class="st14" d="M1000.2,740.8c91.6,0,91.6-41,91.6-103"/>
<path class="st14" d="M1000.3,795.5c-50.4,0-50.4-22.6-50.4-56.7"/>
<line class="st14" x1="1000.2" y1="849.7" x2="1000.2" y2="364.2"/>
<line class="st14" x1="1000.2" y1="637.8" x2="949.9" y2="587.6"/>
<line class="st14" x1="1000.2" y1="534.2" x2="1030.6" y2="503.8"/>
<path class="st1" d="M750.5,341.6c6.2-25.3-9.3-50.9-34.6-57c-20.1-4.9-41,3.8-51.6,21.5c-18.8-8.5-41-0.1-49.5,18.7
	c-2.2,4.8-3.3,10.1-3.3,15.4c0,0.5,0,1,0,1.5L750.5,341.6z"/>
<path class="st1" d="M291.9,268.3c-6.2-25.3,9.3-50.9,34.6-57c20.1-4.9,41,3.8,51.6,21.5c18.8-8.5,41-0.2,49.5,18.6
	c2.2,4.9,3.3,10.1,3.3,15.5c0,0.5,0,1,0,1.5H291.9z"/>
<path class="st5" d="M924.3,936.1c-50.3,0-91,21.5-91,48h182C1015.3,957.5,974.6,936.1,924.3,936.1z"/>
<path class="st8" d="M502.8,1006.9c-12.5,0-22.7,8.8-22.7,19.6h45.5C525.5,1015.7,515.3,1006.9,502.8,1006.9z"/>
<path class="st8" d="M833.3,902.4c-12.6,0-22.7,13-22.7,29.1H856C856,915.5,845.8,902.4,833.3,902.4z"/>
<path class="st8" d="M120.9,974.6c-20,0-36.2,6.5-36.2,14.5H157C157,981.1,140.8,974.6,120.9,974.6z"/>
<path class="st8" d="M1030.6,974.6c-20,0-36.2,6.5-36.2,14.5h72.3C1066.7,981.1,1050.5,974.6,1030.6,974.6z"/>
<path class="st5" d="M882,746.5L882,746.5c24.2,0,43.8,19.6,43.8,43.8v40c0,24.2-19.6,43.8-43.8,43.8h0c-24.2,0-43.8-19.6-43.8-43.8
	v-40C838.2,766.2,857.8,746.5,882,746.5z"/>
<line class="st15" x1="882.1" y1="907.5" x2="882.1" y2="786.4"/>
<path class="st15" d="M882.1,837.9c23.9,0,23.9-14.4,23.9-36.3"/>
<path class="st15" d="M882.1,815.8c-16.6,0-16.6-10-16.6-25.2"/>
<line class="st16" x1="331.7" y1="947.7" x2="412.8" y2="947.7"/>
<line class="st16" x1="668.4" y1="893.9" x2="722.1" y2="893.9"/>
<line class="st16" x1="627.9" y1="907.5" x2="681.6" y2="907.5"/>
<line class="st16" x1="116.9" y1="918.6" x2="170.6" y2="918.6"/>
<line class="st16" x1="748.5" y1="999.2" x2="824.1" y2="999.2"/>
</svg>
