<svg xmlns="http://www.w3.org/2000/svg" viewBox="0 0 782.6 279.73"><defs><style>.cls-1,.cls-2{fill:#231f20;}.cls-2{font-size:186.21px;font-family:Montserrat-Bold, Montserrat;font-weight:700;letter-spacing:0.01em;}.cls-3{letter-spacing:0em;}.cls-4{letter-spacing:-0.01em;}</style></defs><title>logo</title><g id="Layer_2" data-name="Layer 2"><g id="Layer_1-2" data-name="Layer 1"><path class="cls-1" d="M201.89,53.44,150.27,2.62a9.28,9.28,0,0,0-12.92,0L85.73,53.44a8.93,8.93,0,0,0,0,12.72L137.35,117a9.26,9.26,0,0,0,12.92,0l51.62-50.81A8.93,8.93,0,0,0,201.89,53.44Z"/><path class="cls-1" d="M284.2,141.21,232.58,90.4a9.26,9.26,0,0,0-12.92,0L168,141.21a8.93,8.93,0,0,0-2.64,6.85,8.74,8.74,0,0,0-.43,2.71v71.87a9.09,9.09,0,0,0,9.14,9h73a9.09,9.09,0,0,0,9.14-9V181.45l28-27.52A8.93,8.93,0,0,0,284.2,141.21Z"/><path class="cls-1" d="M118.82,141.21,67.2,90.4a9.26,9.26,0,0,0-12.92,0L2.66,141.21a8.93,8.93,0,0,0,0,12.72L30,180.81v42.36a9.09,9.09,0,0,0,9.13,9h73a9.09,9.09,0,0,0,9.14-9V151.3a8.94,8.94,0,0,0-.1-1.27A9,9,0,0,0,118.82,141.21Z"/><text class="cls-2" transform="translate(296.48 230.2) scale(1.02 1)">a<tspan class="cls-3" x="116.75" y="0">t</tspan><tspan class="cls-4" x="197.39" y="0">t</tspan><tspan x="277.08" y="0">er</tspan></text><rect class="cls-1" x="486.66" y="132.25" width="12.81" height="22.34"/></g></g></svg>